# xmcd CD database file
# Copyright (C) 1993-1998 Ti Kan
#
# Track frame offsets:
#  150
#  9620
#  25008
#  50568
#  60330
#  71655
#  96365
#  118383
#  136648
#  151695
#  170363
#  193278
#  205095
#  223830
#  241803
#  261388
#
# Disc length: 3666 seconds
#
# Revision: 1
# Processed by: cddbd v1.4b41PL1 Copyright (c) Steve Scherf et al.
# Submitted via: KiC 2.1 - (C) 1996-1998 Alwin Hoogerdijk
#
DISCID=e30e5010
DTITLE=The Rusty Spoon Blues Band - Midnight Screams
DYEAR=1900
DGENRE=
TTITLE0=I May Be Old
TTITLE1=Funny Stuff
TTITLE2=AT&T Blues
TTITLE3=South End Shuffle
TTITLE4=Hog Headed Woman
TTITLE5=Midnight Screams
TTITLE6=What Is This Thing Called Love
TTITLE7=You Gotta Crawl
TTITLE8=Big Woman Boogie
TTITLE9=Look At The Head On That
TTITLE10=Somebody's Got To Pay
TTITLE11=Whatcha Gonna Do
TTITLE12=I Can't Take It No More
TTITLE13=Bluetangle
TTITLE14=Spend My Life Alone
TTITLE15=I Love The Blues
EXTD=
EXTT0=
EXTT1=
EXTT2=
EXTT3=
EXTT4=
EXTT5=
EXTT6=
EXTT7=
EXTT8=
EXTT9=
EXTT10=
EXTT11=
EXTT12=
EXTT13=
EXTT14=
EXTT15=
PLAYORDER=
